<?xml version="1.0" encoding="utf-8"?>
<!-- Generator: Adobe Illustrator 24.2.0, SVG Export Plug-In . SVG Version: 6.00 Build 0)  -->
<svg version="1.1" id="Layer_1" xmlns="http://www.w3.org/2000/svg" xmlns:xlink="http://www.w3.org/1999/xlink" x="0px" y="0px"
	 viewBox="0 0 35 35" style="enable-background:new 0 0 35 35;" xml:space="preserve">
<style type="text/css">
	.st0{fill:none;}
	.st1{fill:#DA2128;}
</style>
<rect class="st0" width="35" height="35"/>
<g>
	<polygon class="st1" points="35,8.9 31.4,8.9 30.1,5 28.9,8.9 25.1,8.9 28.2,11.1 27.2,14.7 30.1,12.5 33.3,14.6 32.1,11.1 	"/>
	<g>
		<path class="st1" d="M13.1,4.4C5.9,4.4,0,10.3,0,17.5c0,0,0.1,1.5,0.5,2.3c0,0,0.5-1.9,0.7-2c-0.1,0,0.2,2.4,0.2,2.4L3.2,21
			l-1.5,0.6c0,0-0.3,0.5-0.1,1.9c0,0,0.1,0.6,0.8,1.6c2.3,3.4,6.3,5.5,10.7,5.5c7.2,0,13.1-5.9,13.1-13.1
			C26.2,10.3,20.3,4.4,13.1,4.4z M5.9,27.5c-0.4-0.3-1.3-1.3-1.3-1.3l-0.9,0.1c0-0.2,0.1-0.5,0.1-0.9c-0.3-0.4-0.8-0.9-1.1-1.5
			c0,0,0.5,0.4,1.3,0.7c0.2-0.6,0.3-1.1,0.3-1.1c0.2,0.3,0.4,0.8,0.7,1.4c0.5,0.1,1.1,0.2,1.8,0.2c0,0-0.6,0.5-1.4,0.7
			C5.7,26.8,5.9,27.5,5.9,27.5z M5,16.5c-0.6,1.5-1.1,2.8-1.1,2.8c-0.2-0.8-0.3-1.8-0.4-2.7c-1.4,0.2-2,0.5-2,0.5
			c0.4-0.8,1.1-1.5,1.8-2.2c-0.1-1.4-0.1-2.4-0.1-2.4c0.4,0.3,0.9,0.8,1.4,1.3c1-0.8,1.9-1.3,1.9-1.3c-0.2,0.5-0.6,1.3-0.9,2.2
			c0.8,0.9,1.5,1.6,1.5,1.6C6.3,16.5,5.6,16.5,5,16.5z M10.2,26.1l0.6,1.3l-1.2-0.8l-1.1,0.9l0.3-1.4c-0.5-0.3-1.1-0.6-1.2-0.8
			c0,0,0.5,0,1.4,0l0.3-1.3l0.5,1.2c0.5,0,1-0.1,1.5-0.2C11.3,25.1,10.8,25.6,10.2,26.1z M11.7,13.4l-1.9,2.3l-0.1-2.8
			c-1.2-0.3-2.6-0.6-2.6-0.6c0.8-0.4,1.7-0.8,2.5-1.1L9.7,8.5c0,0,0.8,0.9,1.8,2c1.5-0.5,2.7-0.8,2.7-0.8c-0.4,0.7-1,1.5-1.5,2.2
			c0.8,0.9,1.5,1.8,1.9,2.3L11.7,13.4z M19.5,12.2l-2.4,2l0.6-3.1L15,9.6c1.1-0.2,2.1-0.4,3-0.5l0.7-3.1l1.4,2.9
			c1.7-0.1,2.5,0,2.5,0c-0.8,0.7-1.6,1.9-1.6,1.9l1.5,3L19.5,12.2z"/>
	</g>
</g>
</svg>
