<?xml version="1.0" encoding="utf-8"?>
<!-- Generator: Adobe Illustrator 24.2.0, SVG Export Plug-In . SVG Version: 6.00 Build 0)  -->
<svg version="1.1" id="Layer_1" xmlns="http://www.w3.org/2000/svg" xmlns:xlink="http://www.w3.org/1999/xlink" x="0px" y="0px"
	 viewBox="0 0 300 100" style="enable-background:new 0 0 300 100;" xml:space="preserve">
<style type="text/css">
	.st0{fill:#E50013;}
</style>
<g>
	<path class="st0" d="M115,2.8c0,0,0.1-0.1-3.9,12.9c0,0-0.5,0.7-1.1,0.7H96.2c0,0,5,4.5,10.5,8.3c0,0,1.3,0.8,1,2.1l-3.9,12.8
		c0,0,0.1,0.3,11.5-8.4c0,0,0.5-0.5,1.4,0l11.7,8.3c0,0-0.4-2.2-4.7-13l0.1-1.1l10.6-8.9h-13.2c0,0-1.2-0.3-1.1-0.8L115,2.8z"/>
	<path class="st0" d="M51.9,0C24.3-0.8,1.1,20.6,0,48.2c-0.1,1.5-0.1,2.9,0,4.4c0,0,0.4,5.9,2.2,6.7c0,0,1-6.5,2.3-7.5l1.3,7.4
		c0,0,0.2,1,0.7,1.4l5.6,2.8c0,0,0,0.2-4.7,2c0,0-4.1,3.9,2.1,13.8c6.7,10,22.3,20.3,39.2,21c27.4,0.4,52-20,52-48.3
		C101.7,24.3,80.3,0.8,51.9,0z M21.8,82.5l-0.1,1c1.5,4.2,1.4,4.6,1.4,4.6l-4.5-4.3c-0.5-0.5-1.1-0.2-1.1-0.2
		c-1.8,0.6-2.5,0.3-2.5,0.3l0.1-2.5c0.1-0.7-0.2-1.1-0.2-1.1c-4.3-5.3-3.6-5.4-3.6-5.4l4.3,2.2c0.7,0.4,1-0.6,1-0.6
		c0.8-3.2,1-2.8,1-2.8l2.1,4.1c0.3,0.7,1.1,0.9,1.1,0.9c0.9,0.3,5.9,1.1,5.9,1.1C26.5,80.5,21.8,82.5,21.8,82.5z M20.1,46.2
		c-0.9,0-1.1,0.8-1.1,0.8c-3.5,9.6-4,9.7-4,9.7l-1.6-9.2c-0.2-0.9-0.9-0.5-0.9-0.5C6.6,48.7,6,48.3,6,48.3c0.5-1.7,4.6-6.5,6.2-7.8
		l0.4-1c-0.7-7.4-0.2-7.9-0.2-7.9l4.7,4.1l1,0c6-4.2,6.7-4,6.7-4l-3.1,7.4c-0.4,0.7,0,1.1,0,1.1c3.4,2.9,5.2,5.8,5.2,5.8
		C26.9,46.7,20.1,46.2,20.1,46.2z M40,82.8l0.1,0.8c1.4,3.2,1.5,3.9,1.5,3.9l-3.9-2c-0.6-0.4-0.9,0-0.9,0c-3.5,3.2-3.4,2.5-3.4,2.5
		l0.7-4.3c0.1-0.6-0.2-0.7-0.2-0.7c-4.3-2.4-3.9-2.9-3.9-2.9l4.2-0.1c0.6,0,0.8-0.4,0.8-0.4c0.8-3.7,1.2-3.7,1.2-3.7l2,3.4l1.1,0.4
		c4.6-0.5,4.4-0.4,4.4-0.4L40,82.8z M45.8,34.9c-1.5-0.4-2,0.5-2,0.5c-6.4,8.5-6.1,7.5-6.1,7.5l-0.5-9.1c0-1.2-0.9-1.3-0.9-1.3
		c-8-1.7-8.3-2.2-8.3-2.2c0.1-0.8,8.7-3.9,8.7-3.9l0.4-0.7c-0.2-1.9-0.1-9.1-0.1-9.1l6.7,7.1l1.1,0.1c4.1-1.3,8.8-2.4,8.8-2.4
		c0.1,0.6-4.8,6.9-4.8,6.9c-0.5,0.8,0.1,1.3,0.1,1.3c5.4,6.1,6.2,7.9,6.2,7.9L45.8,34.9z M80.7,24.6c5.3,9.9,5.2,10.8,5.2,10.8
		c-0.6,0.1-10.6-5.5-10.6-5.5c-0.9-0.5-1.2,0.1-1.2,0.1c-8.7,8-8.5,7.1-8.5,7.1l2-10.7c0.1-0.8-0.4-0.9-0.4-0.9
		c-8.1-4.4-9.3-4.9-9.3-4.9c0.3-0.6,10.1-2,10.1-2c0.9-0.1,1-0.7,1-0.7c1.8-9.7,2-10.9,2-10.9l5.4,9.8c0.4,0.6,1.1,0.6,1.1,0.6
		c8.9-0.9,8.6-0.7,8.6-0.7c0,0.6-5.4,7.1-5.4,7.1L80.7,24.6z"/>
	<path class="st0" d="M168.9,64.9h2.4c0,0,5-0.3,5-5.3c0,0,0.3-5.7-7.9-5.7c0,0-1.5-0.2-1.5,1.2v26.3h-10.3V55.1
		c0,0-0.6-5.4,5.2-5.4h11.7c0,0,13.2-0.6,13.6,9.6c0,0,0.6,6.8-8.1,8.7l8.2,13.3h-12.5l-6.6-13.5c0,0-0.7-1.4-0.5-2.1
		C167.5,65.7,167.4,64.9,168.9,64.9z"/>
	<path class="st0" d="M200.8,81.3V55.4c0,0,0.4-6.3-5.5-6.3c0,0-5.3-0.8-5.3,6.3v25.9H200.8z"/>
	<path class="st0" d="M244,81.3V57.2c0,0,0.1-7.5,7.2-7.5c0,0,2.6-0.4,5.3,1.8l10.6,13.8V52.8c0,0-0.3-3.1,2.9-3.1c0,0,3,0,3,3.1
		v28.5h-6.5L249.8,59v22.3H244z"/>
	<path class="st0" d="M134.6,48.7c-10.6,0-19.3,7.5-19.3,16.8c0,9.3,8.7,16.8,19.3,16.8c10.7,0,19.3-7.5,19.3-16.8
		C153.9,56.2,145.3,48.7,134.6,48.7z M134.6,77.6c-4.3,0-7.8-5.5-7.8-12.2c0-6.7,3.5-12.2,7.8-12.2c4.3,0,7.8,5.5,7.8,12.2
		C142.4,72.2,138.9,77.6,134.6,77.6z"/>
	<path class="st0" d="M222,48.7c-10.7,0-19.3,7.5-19.3,16.8c0,9.3,8.6,16.8,19.3,16.8c10.7,0,19.3-7.5,19.3-16.8
		C241.4,56.2,232.7,48.7,222,48.7z M222,77.6c-4.3,0-7.8-5.5-7.8-12.2c0-6.7,3.5-12.2,7.8-12.2c4.3,0,7.8,5.5,7.8,12.2
		C229.9,72.2,226.4,77.6,222,77.6z"/>
	<path class="st0" d="M288.3,50.3c0.7-0.1,1.8-0.2,2.8-0.2c1.5,0,2.5,0.3,3.2,0.9c0.6,0.5,0.9,1.3,0.9,2.1c0,1.5-0.9,2.5-2.1,2.9V56
		c0.9,0.3,1.4,1.1,1.6,2.3c0.4,1.6,0.6,2.6,0.9,3.1h-1.5c-0.2-0.3-0.4-1.3-0.7-2.7c-0.3-1.5-0.9-2.1-2.2-2.2h-1.4v4.9h-1.4V50.3z
		 M289.7,55.4h1.5c1.5,0,2.5-0.9,2.5-2.1c0-1.4-1.1-2.1-2.6-2.1c-0.7,0-1.2,0.1-1.4,0.1V55.4z"/>
	<path class="st0" d="M291.9,47.6c-4.5,0-8.1,3.6-8.1,8.1c0,4.5,3.6,8.1,8.1,8.1c4.5,0,8.1-3.6,8.1-8.1
		C300,51.2,296.4,47.6,291.9,47.6z M291.9,62.7c-3.9,0-7-3.1-7-7c0-3.9,3.1-7,7-7c3.9,0,7,3.1,7,7C298.9,59.5,295.8,62.7,291.9,62.7
		z"/>
</g>
</svg>
